<svg width="36" height="37" viewBox="0 0 36 37" fill="none" xmlns="http://www.w3.org/2000/svg">
<g id="vuesax/linear/call-calling">
<g id="call-calling">
<g id="call-calling_2">
<path id="Vector" d="M31.455 29.5956C31.455 30.1356 31.335 30.6906 31.08 31.2306C30.825 31.7706 30.495 32.2806 30.06 32.7606C29.325 33.5706 28.515 34.1556 27.6 34.5306C26.7 34.9056 25.725 35.1006 24.675 35.1006C23.145 35.1006 21.51 34.7406 19.785 34.0056C18.06 33.2706 16.335 32.2806 14.625 31.0356C12.9 29.7756 11.265 28.3806 9.705 26.8356C8.16 25.2756 6.765 23.6406 5.52 21.9306C4.29 20.2206 3.3 18.5106 2.58 16.8156C1.86 15.1056 1.5 13.4706 1.5 11.9106C1.5 10.8906 1.68 9.91559 2.04 9.01559C2.4 8.10059 2.97 7.26059 3.765 6.51059C4.725 5.56559 5.775 5.10059 6.885 5.10059C7.305 5.10059 7.725 5.19059 8.1 5.37059C8.49 5.55059 8.835 5.82059 9.105 6.21059L12.585 11.1156C12.855 11.4906 13.05 11.8356 13.185 12.1656C13.32 12.4806 13.395 12.7956 13.395 13.0806C13.395 13.4406 13.29 13.8006 13.08 14.1456C12.885 14.4906 12.6 14.8506 12.24 15.2106L11.1 16.3956C10.935 16.5606 10.86 16.7556 10.86 16.9956C10.86 17.1156 10.875 17.2206 10.905 17.3406C10.95 17.4606 10.995 17.5506 11.025 17.6406C11.295 18.1356 11.76 18.7806 12.42 19.5606C13.095 20.3406 13.815 21.1356 14.595 21.9306C15.405 22.7256 16.185 23.4606 16.98 24.1356C17.76 24.7956 18.405 25.2456 18.915 25.5156C18.99 25.5456 19.08 25.5906 19.185 25.6356C19.305 25.6806 19.425 25.6956 19.56 25.6956C19.815 25.6956 20.01 25.6056 20.175 25.4406L21.315 24.3156C21.69 23.9406 22.05 23.6556 22.395 23.4756C22.74 23.2656 23.085 23.1606 23.46 23.1606C23.745 23.1606 24.045 23.2206 24.375 23.3556C24.705 23.4906 25.05 23.6856 25.425 23.9406L30.39 27.4656C30.78 27.7356 31.05 28.0506 31.215 28.4256C31.365 28.8006 31.455 29.1756 31.455 29.5956Z" stroke="white" stroke-width="1.8" stroke-miterlimit="10"/>
<path id="Vector_2" d="M26.25 15.6006C26.25 14.7006 25.545 13.3206 24.495 12.1956C23.535 11.1606 22.26 10.3506 21 10.3506" stroke="white" stroke-width="1.8" stroke-linecap="round" stroke-linejoin="round"/>
<path id="Vector_3" d="M31.5 15.6006C31.5 9.79559 26.805 5.10059 21 5.10059" stroke="white" stroke-width="1.8" stroke-linecap="round" stroke-linejoin="round"/>
</g>
</g>
</g>
</svg>
